<svg width="192.000000" height="192.000000" viewBox="0 0 192 192" fill="none" xmlns="http://www.w3.org/2000/svg" xmlns:xlink="http://www.w3.org/1999/xlink">
	<desc>
			Created with Pixso.
	</desc>
	<defs>
		<linearGradient x1="-10.306488" y1="181.692688" x2="181.692535" y2="-10.306335" id="paint_linear_23_2836_0" gradientUnits="userSpaceOnUse">
			<stop stop-color="#FF001B"/>
			<stop offset="0.160000" stop-color="#FF001B"/>
			<stop offset="0.327000" stop-color="#63000A"/>
			<stop offset="0.650000" stop-color="#67000B"/>
			<stop offset="0.831000" stop-color="#FF001B"/>
			<stop offset="1.000000" stop-color="#FF001B"/>
		</linearGradient>
		<linearGradient x1="90.183640" y1="29.003813" x2="80.978226" y2="71.227661" id="paint_linear_23_2842_0" gradientUnits="userSpaceOnUse">
			<stop stop-color="#580009"/>
			<stop offset="0.135000" stop-color="#A40011"/>
			<stop offset="0.263000" stop-color="#D80016"/>
			<stop offset="0.562000" stop-color="#AA0012"/>
			<stop offset="0.991000" stop-color="#5B0009"/>
		</linearGradient>
		<linearGradient x1="94.974045" y1="51.862701" x2="77.906639" y2="48.573296" id="paint_linear_23_2843_0" gradientUnits="userSpaceOnUse">
			<stop stop-color="#000000"/>
			<stop offset="0.265300" stop-color="#525252"/>
			<stop offset="0.527400" stop-color="#9C9C9C"/>
			<stop offset="0.742700" stop-color="#D2D2D2"/>
			<stop offset="0.903200" stop-color="#F3F3F3"/>
			<stop offset="0.991000" stop-color="#FFFFFF"/>
		</linearGradient>
		<linearGradient x1="30.142849" y1="89.044937" x2="72.366386" y2="79.839615" id="paint_linear_23_2846_0" gradientUnits="userSpaceOnUse">
			<stop stop-color="#580009"/>
			<stop offset="0.135000" stop-color="#A40011"/>
			<stop offset="0.263000" stop-color="#D80016"/>
			<stop offset="0.562000" stop-color="#AA0012"/>
			<stop offset="0.991000" stop-color="#5B0009"/>
		</linearGradient>
		<linearGradient x1="52.797417" y1="93.802277" x2="49.540367" y2="75.302498" id="paint_linear_23_2847_0" gradientUnits="userSpaceOnUse">
			<stop stop-color="#000000"/>
			<stop offset="0.442500" stop-color="#787878"/>
			<stop offset="0.822000" stop-color="#D9D9D9"/>
			<stop offset="0.991000" stop-color="#FFFFFF"/>
		</linearGradient>
		<linearGradient x1="104.094589" y1="162.528000" x2="74.663147" y2="97.129707" id="paint_linear_23_2849_0" gradientUnits="userSpaceOnUse">
			<stop stop-color="#D50016"/>
			<stop offset="0.342000" stop-color="#FF001B"/>
			<stop offset="0.536000" stop-color="#C70015"/>
			<stop offset="0.729000" stop-color="#80000D"/>
		</linearGradient>
		<linearGradient x1="30.938816" y1="122.577423" x2="72.061752" y2="81.454483" id="paint_linear_23_2852_0" gradientUnits="userSpaceOnUse">
			<stop stop-color="#580009"/>
			<stop offset="0.135000" stop-color="#A40011"/>
			<stop offset="0.263000" stop-color="#E60018"/>
			<stop offset="0.500000" stop-color="#BD0014"/>
		</linearGradient>
		<linearGradient x1="67.775391" y1="136.625092" x2="83.017944" y2="94.314743" id="paint_linear_23_2854_0" gradientUnits="userSpaceOnUse">
			<stop stop-color="#93000F"/>
			<stop offset="0.111000" stop-color="#D50016"/>
			<stop offset="0.226000" stop-color="#FF3B46"/>
			<stop offset="0.361000" stop-color="#E10017"/>
			<stop offset="0.551000" stop-color="#990010"/>
			<stop offset="0.782000" stop-color="#67000B"/>
		</linearGradient>
		<linearGradient x1="30.959265" y1="100.153458" x2="76.119293" y2="90.307938" id="paint_linear_23_2855_0" gradientUnits="userSpaceOnUse">
			<stop stop-color="#93000F"/>
			<stop offset="0.111000" stop-color="#D50016"/>
			<stop offset="0.226000" stop-color="#FF7780"/>
			<stop offset="0.361000" stop-color="#FF001B"/>
			<stop offset="0.551000" stop-color="#AD0012"/>
			<stop offset="0.865000" stop-color="#70000C"/>
		</linearGradient>
		<linearGradient x1="34.816261" y1="111.537018" x2="77.095970" y2="93.161224" id="paint_linear_23_2856_0" gradientUnits="userSpaceOnUse">
			<stop offset="0.139000" stop-color="#000000"/>
			<stop offset="0.389000" stop-color="#464646"/>
			<stop offset="0.835000" stop-color="#000000"/>
		</linearGradient>
		<linearGradient x1="62.657772" y1="134.185867" x2="79.334717" y2="92.981567" id="paint_linear_23_2859_0" gradientUnits="userSpaceOnUse">
			<stop offset="0.126000" stop-color="#000000"/>
			<stop offset="0.498000" stop-color="#464646"/>
			<stop offset="0.844000" stop-color="#000000"/>
		</linearGradient>
		<linearGradient x1="39.498356" y1="134.327835" x2="82.216324" y2="91.609879" id="paint_linear_23_2860_0" gradientUnits="userSpaceOnUse">
			<stop stop-color="#93000F"/>
			<stop offset="0.111000" stop-color="#D50016"/>
			<stop offset="0.226000" stop-color="#FF7780"/>
			<stop offset="0.361000" stop-color="#FF001B"/>
			<stop offset="0.573000" stop-color="#C70015"/>
			<stop offset="0.857000" stop-color="#6C000B"/>
		</linearGradient>
		<linearGradient x1="108.142654" y1="121.870766" x2="70.212547" y2="133.143005" id="paint_linear_23_2862_0" gradientUnits="userSpaceOnUse">
			<stop stop-color="#80000D"/>
			<stop offset="1.000000" stop-color="#C70015"/>
		</linearGradient>
		<linearGradient x1="163.666397" y1="102.955215" x2="98.268349" y2="73.523979" id="paint_linear_23_2864_0" gradientUnits="userSpaceOnUse">
			<stop stop-color="#D50016"/>
			<stop offset="0.342000" stop-color="#FF001B"/>
			<stop offset="0.536000" stop-color="#C70015"/>
			<stop offset="0.729000" stop-color="#80000D"/>
		</linearGradient>
		<linearGradient x1="123.009079" y1="107.003830" x2="134.281433" y2="69.073303" id="paint_linear_23_2866_0" gradientUnits="userSpaceOnUse">
			<stop stop-color="#80000D"/>
			<stop offset="1.000000" stop-color="#C70015"/>
		</linearGradient>
		<linearGradient x1="123.715866" y1="29.800385" x2="82.593178" y2="70.923096" id="paint_linear_23_2868_0" gradientUnits="userSpaceOnUse">
			<stop stop-color="#580009"/>
			<stop offset="0.135000" stop-color="#A40011"/>
			<stop offset="0.263000" stop-color="#E60018"/>
			<stop offset="0.500000" stop-color="#BD0014"/>
		</linearGradient>
		<linearGradient x1="137.763672" y1="66.636848" x2="95.453796" y2="81.879204" id="paint_linear_23_2870_0" gradientUnits="userSpaceOnUse">
			<stop stop-color="#93000F"/>
			<stop offset="0.111000" stop-color="#D50016"/>
			<stop offset="0.226000" stop-color="#FF3B46"/>
			<stop offset="0.361000" stop-color="#E10017"/>
			<stop offset="0.551000" stop-color="#990010"/>
			<stop offset="0.782000" stop-color="#67000B"/>
		</linearGradient>
		<linearGradient x1="101.292244" y1="29.820240" x2="91.446625" y2="74.980652" id="paint_linear_23_2871_0" gradientUnits="userSpaceOnUse">
			<stop stop-color="#93000F"/>
			<stop offset="0.111000" stop-color="#D50016"/>
			<stop offset="0.226000" stop-color="#FF7780"/>
			<stop offset="0.361000" stop-color="#FF001B"/>
			<stop offset="0.551000" stop-color="#AD0012"/>
			<stop offset="0.865000" stop-color="#70000C"/>
		</linearGradient>
		<linearGradient x1="112.674660" y1="33.678539" x2="94.298462" y2="75.958801" id="paint_linear_23_2872_0" gradientUnits="userSpaceOnUse">
			<stop offset="0.139000" stop-color="#000000"/>
			<stop offset="0.389000" stop-color="#464646"/>
			<stop offset="0.835000" stop-color="#000000"/>
		</linearGradient>
		<linearGradient x1="135.322952" y1="61.519543" x2="94.118484" y2="78.196541" id="paint_linear_23_2875_0" gradientUnits="userSpaceOnUse">
			<stop offset="0.126000" stop-color="#000000"/>
			<stop offset="0.498000" stop-color="#464646"/>
			<stop offset="0.844000" stop-color="#000000"/>
		</linearGradient>
		<linearGradient x1="135.307068" y1="38.518181" x2="92.747879" y2="81.077385" id="paint_linear_23_2876_0" gradientUnits="userSpaceOnUse">
			<stop stop-color="#93000F"/>
			<stop offset="0.111000" stop-color="#D50016"/>
			<stop offset="0.226000" stop-color="#FF7780"/>
			<stop offset="0.361000" stop-color="#FF001B"/>
			<stop offset="0.573000" stop-color="#C70015"/>
			<stop offset="0.857000" stop-color="#6C000B"/>
		</linearGradient>
		<linearGradient x1="75.874535" y1="74.983795" x2="99.225899" y2="98.115204" id="paint_linear_23_2879_0" gradientUnits="userSpaceOnUse">
			<stop offset="0.011000" stop-color="#80000D"/>
			<stop offset="0.160000" stop-color="#B80013"/>
			<stop offset="0.303000" stop-color="#E10018"/>
			<stop offset="0.500000" stop-color="#FF5D61"/>
			<stop offset="0.694000" stop-color="#E50018"/>
			<stop offset="0.853000" stop-color="#B60013"/>
			<stop offset="1.000000" stop-color="#80000D"/>
		</linearGradient>
	</defs>
	<path id="Vector" d="M0 192L0 150.75L150.75 0L192 0L0 192Z" fill="url(#paint_linear_23_2836_0)" fill-opacity="1.000000" fill-rule="nonzero"/>
	<g opacity="0.300000">
		<path id="Vector" d="M137.26 33.7C134.43 30.91 130.4 27.22 126.65 24.1L87.62 63.13C84.74 68.7 82.77 73.02 82.58 73.36L81.18 76.38L97.36 92.56L100.2 91.6C100.24 91.6 100.29 91.55 100.34 91.55L147.2 44.69C144.66 41.38 141.15 37.49 137.26 33.7Z" fill="#000000" fill-opacity="1.000000" fill-rule="nonzero"/>
	</g>
	<g opacity="0.300000">
		<path id="Vector" d="M92.75 99.14L93.71 96.31L77.53 80.13L74.51 81.52C74.17 81.66 69.85 83.63 64.28 86.56L25.15 125.69C28.08 129.34 31.63 133.33 34.8 136.4C37.73 139.28 42.05 143.12 45.89 146.14L92.75 99.28C92.75 99.19 92.75 99.14 92.75 99.14Z" fill="#000000" fill-opacity="1.000000" fill-rule="nonzero"/>
	</g>
	<path id="Vector" d="M81.86 27.17C80.8 27.22 79.5 28.08 78.45 32.79C77.77 35.91 77.73 40.9 78.3 48.15C79.26 59.77 84.26 71.92 84.26 71.92L91.7 71.73L100.2 32.79C100.24 32.84 83.44 27.51 81.86 27.17Z" fill="url(#paint_linear_23_2842_0)" fill-opacity="1.000000" fill-rule="nonzero"/>
	<path id="Vector" d="M81.86 27.17C80.8 27.22 79.5 28.08 78.45 32.79C77.77 35.91 77.73 40.9 78.3 48.15C79.26 59.77 84.26 71.92 84.26 71.92L91.7 71.73L100.2 32.79C100.24 32.84 83.44 27.51 81.86 27.17Z" fill="url(#paint_linear_23_2843_0)" fill-opacity="1.000000" fill-rule="nonzero"/>
	<path id="Vector" d="M91.94 72.01L84.16 72.21C84.02 71.87 84.06 72.01 83.97 71.73C83.87 71.44 83.73 71.1 83.58 70.76C83.2 69.71 82.77 68.51 82.34 67.16C81.09 63.42 79.98 59.48 79.21 55.59C78.69 53.05 78.35 50.55 78.16 48.25C77.58 41 77.63 35.96 78.3 32.79C79.21 28.71 80.37 27.12 81.9 27.03C87.14 28.47 92.32 30.15 97.46 31.78C98.23 32.02 98.9 32.21 99.52 32.45L100.53 32.79L91.94 72.01ZM84.45 71.73L91.55 71.58L99.96 33.03C98.04 32.4 98.9 32.69 97.32 32.21C95.15 31.54 92.99 30.87 90.98 30.24C88.67 29.52 86.42 28.8 84.11 28.13C83.63 27.99 82.96 27.79 82.43 27.65C81.57 27.41 81.57 27.51 80.75 27.99C79.5 29.33 79.12 31.16 78.73 32.88C78.06 36 78.01 41 78.59 48.2C78.78 50.5 79.12 52.95 79.65 55.5C80.42 59.39 81.52 63.28 82.77 67.02C83.2 68.32 83.63 69.52 84.02 70.57C84.16 70.96 84.3 71.25 84.4 71.53L84.45 71.73Z" fill="#FFA7A9" fill-opacity="1.000000" fill-rule="nonzero"/>
	<path id="Vector" d="M28.32 80.7C28.37 79.65 29.23 78.35 33.94 77.29C37.06 76.62 42.05 76.57 49.3 77.15C60.92 78.11 73.07 83.1 73.07 83.1L72.88 90.55L33.94 99.04C33.94 99.09 28.66 82.29 28.32 80.7Z" fill="url(#paint_linear_23_2846_0)" fill-opacity="1.000000" fill-rule="nonzero"/>
	<path id="Vector" d="M28.32 80.7C28.37 79.65 29.23 78.35 33.94 77.29C37.06 76.62 42.05 76.57 49.3 77.15C60.92 78.11 73.07 83.1 73.07 83.1L72.88 90.55L33.94 99.04C33.94 99.09 28.66 82.29 28.32 80.7Z" fill="url(#paint_linear_23_2847_0)" fill-opacity="1.000000" fill-rule="nonzero"/>
	<path id="Vector" d="M73.17 90.79L33.8 99.38C33.46 98.37 33.17 97.32 32.84 96.31C32.16 94.15 31.49 91.99 30.87 89.97C30.15 87.66 29.43 85.36 28.75 83.1C28.56 82.43 28.13 81.42 28.08 80.75C28.18 79.21 29.76 78.06 33.84 77.15C37.01 76.48 42.05 76.38 49.3 77.01C51.66 77.2 54.1 77.53 56.65 78.06C60.54 78.83 64.48 79.93 68.22 81.18C69.52 81.62 70.72 82.05 71.82 82.43C72.21 82.58 72.54 82.72 72.78 82.82C73.07 82.96 72.93 82.86 73.26 83.01L73.17 90.79ZM34.13 98.8L72.69 90.4L72.83 83.3L72.64 83.2C72.35 83.1 72.01 82.96 71.68 82.82C70.62 82.43 69.42 82 68.12 81.57C64.38 80.32 60.49 79.21 56.6 78.45C54.06 77.92 51.61 77.58 49.3 77.39C42.1 76.81 37.11 76.86 33.99 77.53C32.26 77.92 30.43 78.35 29.09 79.55C28.56 80.27 28.51 80.46 28.75 81.23C28.9 81.71 29.09 82.38 29.23 82.91C29.62 84.26 30.05 85.6 30.48 86.94C31.44 89.97 32.36 93.04 33.32 96.07C33.56 96.83 33.8 97.51 33.99 98.13L34.13 98.8Z" fill="#FFA7A9" fill-opacity="1.000000" fill-rule="nonzero"/>
	<path id="Vector" d="M108.65 149.46C108.65 149.46 113.4 114.74 93.38 91.17C88.87 92.47 73.02 95.97 72.78 96.21C94.63 120.03 76.48 154.11 76.48 154.11L94.39 142.16L108.65 149.46Z" fill="url(#paint_linear_23_2849_0)" fill-opacity="1.000000" fill-rule="nonzero"/>
	<g opacity="0.400000">
		<path id="Vector" d="M52.86 128.76C54.34 129.29 57.23 128.52 59 125.88C60.59 123.48 62.46 117 66.44 109.94C71.2 101.49 92.9 88.48 92.9 88.48L100.29 101.3C100.29 101.3 97.56 104.13 93.04 106.49C93.47 112.34 93.76 118.92 93.38 124.68C92.61 136.25 87.95 139.66 84.45 140.09C82.86 140.29 77.15 137.45 69.47 134.67C64.86 133.08 54.44 130.11 52.86 128.76Z" fill="#121214" fill-opacity="1.000000" fill-rule="nonzero"/>
	</g>
	<path id="Vector" d="M23.57 115.22C22.9 114.02 22.08 110.81 26.5 106.39C29.43 103.46 35.52 98.95 43.93 94.43C57.32 87.28 73.5 82.86 73.5 82.86L79.36 94.63L42.63 131.36C42.68 131.4 25.06 116.71 23.57 115.22Z" fill="url(#paint_linear_23_2852_0)" fill-opacity="1.000000" fill-rule="nonzero"/>
	<path id="Vector" d="M42.68 131.69C40.66 130.01 41.67 130.83 39.75 129.24C37.64 127.52 35.52 125.74 33.51 124.01C30.91 121.85 28.32 119.64 25.78 117.43C25.25 117 23.81 115.85 23.38 115.27C22.13 113.02 22.7 109.85 26.35 106.2C29.71 102.84 36.2 98.28 43.83 94.19C47.77 92.08 52.18 90.11 56.89 88.24C60.83 86.66 64.81 85.31 68.56 84.11C69.85 83.68 71.05 83.34 72.11 83.01C72.49 82.91 72.83 82.82 73.07 82.72C73.41 82.62 73.21 82.67 73.6 82.58L79.65 94.67L42.68 131.69ZM42.68 131.07L79.12 94.63L73.41 83.2L73.26 83.25C72.97 83.34 72.64 83.44 72.3 83.54C71.24 83.82 70.04 84.21 68.75 84.64C65 85.84 61.07 87.23 57.13 88.77C52.42 90.64 48.06 92.61 44.12 94.72C36.48 98.76 30.05 103.27 26.69 106.58C24.87 108.45 22.8 111.05 23.33 113.88C23.38 114.17 23.57 114.79 23.76 115.08C23.95 115.37 24.91 116.09 25.11 116.28C25.78 116.86 26.59 117.58 27.31 118.15C29.28 119.83 31.2 121.47 33.17 123.1C33.41 123.29 33.6 123.48 33.84 123.63C35.86 125.31 37.97 127.08 40.09 128.81C40.81 129.44 41.48 130.01 42.1 130.49L42.68 131.07Z" fill="#FFA7A9" fill-opacity="1.000000" fill-rule="nonzero"/>
	<path id="Vector" d="M50.02 129.87C51.51 130.4 54.39 129.63 56.17 126.99C57.75 124.59 59.63 118.11 63.61 111.05C68.36 102.6 77.2 92.23 77.2 92.23L89.2 96.55C89.2 96.55 91.31 114.26 90.5 125.84C89.73 137.41 85.07 140.82 81.57 141.25C79.98 141.44 74.27 138.61 66.59 135.82C62.03 134.19 51.61 131.21 50.02 129.87Z" fill="url(#paint_linear_23_2854_0)" fill-opacity="1.000000" fill-rule="nonzero"/>
	<path id="Vector" d="M28.13 80.66C31.11 85.36 38.88 86.32 47 85.94C56.7 85.46 74.65 83.68 74.65 83.68L77.39 96.16C77.39 96.16 63.51 107.35 53.29 112.82C43.06 118.3 38.5 119.55 36.24 116.76C35.24 115.51 32.93 109.22 31.2 101.2C30.15 96.5 27.84 82.72 28.13 80.66Z" fill="url(#paint_linear_23_2855_0)" fill-opacity="1.000000" fill-rule="nonzero"/>
	<g opacity="0.308000">
		<path id="Vector" d="M77.15 95.2C67.93 102.45 58.47 109.51 47.86 114.55C46.23 115.32 44.31 116.14 42.58 116.71C41 117.19 39.12 117.63 37.54 117C35.91 116.38 35.38 115.03 34.76 113.54C34.52 112.97 34.28 112.39 34.08 111.82C33.36 109.85 32.79 107.59 32.21 105.57C34.71 107.74 37.3 106.58 39.08 105.43C41.14 104.04 43.93 101.54 47.14 99.04C50.31 96.6 54.3 94.53 57.03 93.43C60.87 91.84 67.74 88.67 75.13 85.27L77.15 95.2Z" fill="url(#paint_linear_23_2856_0)" fill-opacity="1.000000" fill-rule="nonzero"/>
	</g>
	<path id="Vector" d="M76.24 87.71L68.08 92.37L77.87 90.74L67.6 99.67L80.08 93.04L66.68 108.41L81.81 94.87L78.93 103.46L83.87 96.79L78.49 116.47L86.51 97.03C86.61 96.98 76.24 87.71 76.24 87.71Z" fill="#80000D" fill-opacity="1.000000" fill-rule="nonzero"/>
	<path id="Vector" d="M73.84 84.02L73.31 84.06C72.21 84.16 70.96 84.3 69.61 84.4C65.77 84.74 61.93 85.07 58.28 85.41C57.99 85.46 57.66 85.46 57.37 85.5C53.29 85.84 49.78 86.08 47.05 86.23C42.63 86.37 38.02 86.47 33.8 85.02C31.83 84.35 29.57 83.06 28.32 81.28C27.99 80.51 28.18 80.85 28.23 80.18L28.51 80.66C31.11 84.79 37.4 86.23 47 85.75C49.69 85.6 53.19 85.36 57.27 85.02C57.56 85.02 57.9 84.98 58.19 84.93C61.79 84.64 65.68 84.3 69.52 83.92C70.86 83.78 72.11 83.68 73.21 83.58L73.69 83.54L73.74 83.68L73.84 84.02Z" fill="#FFA7A9" fill-opacity="1.000000" fill-rule="nonzero"/>
	<g opacity="0.311000">
		<path id="Vector" d="M75.71 134.62C74.27 135.97 72.45 137.12 70.43 137.26C67.45 136.11 68.75 136.59 66.49 135.77C61.98 134.14 51.56 131.16 49.98 129.82C51.46 130.35 54.34 129.58 56.12 126.94C57.71 124.54 59.58 118.06 63.56 111C66.35 106.1 69.71 101.54 73.17 97.08C74.08 95.87 75.04 94.67 76 93.52C76.38 93.09 76.72 92.56 77.15 92.18L88.91 96.4L88.91 96.45C86.94 105.43 84.59 114.31 81.52 122.95C80.56 125.69 79.74 127.52 78.64 130.06C78.49 130.35 77.87 131.69 77.63 132.12C77.34 132.6 77.05 133.04 76.77 133.47L75.71 134.62Z" fill="url(#paint_linear_23_2859_0)" fill-opacity="1.000000" fill-rule="nonzero"/>
	</g>
	<path id="Vector" d="M23.57 115.22C25.06 116.71 28.8 117.39 32.4 115.22C35.62 113.3 41.38 106.68 50.02 100.53C60.3 93.19 76.48 85.84 76.48 85.84L88.24 97.6C88.24 97.6 80.9 119.64 73.55 132.85C66.2 146.05 58.86 147.54 54.44 146.05C52.47 145.38 44.79 139.47 38.12 132.94C31.44 126.36 24.72 117.67 23.57 115.22Z" fill="url(#paint_linear_23_2860_0)" fill-opacity="1.000000" fill-rule="nonzero"/>
	<path id="Vector" d="M75.23 86.71C73.79 87.38 74.61 86.99 72.83 87.86C69.95 89.25 66.92 90.79 63.9 92.42C61.4 93.76 59.05 95.11 56.84 96.4C54.34 97.89 52.09 99.33 50.17 100.72C45.65 103.89 41.57 107.59 37.54 111.29C34.9 113.69 33.65 114.74 32.55 115.42C30.34 116.66 26.83 117.53 24.48 116.14C23.81 115.8 23.42 115.37 23.38 115.32L23.76 115.03C25.39 116.66 29.19 116.86 32.31 114.98C33.36 114.36 34.61 113.3 37.25 110.9C40.04 108.41 42.77 105.81 45.7 103.51C47.72 101.88 48.15 101.59 49.93 100.29C51.9 98.9 54.15 97.41 56.65 95.92C58.86 94.58 61.21 93.28 63.71 91.94C66.73 90.31 69.76 88.77 72.64 87.38C74.37 86.51 73.6 86.9 74.99 86.27L75.23 86.71Z" fill="#FFA7A9" fill-opacity="1.000000" fill-rule="nonzero"/>
	<path id="Vector" d="M108.93 149.99L94.39 142.59L76.96 154.64L76.48 154.16C84.16 148.74 77.92 152.77 94.34 141.77L108.36 148.93C108.45 148.21 108.41 148.59 108.45 147.78C108.55 146.43 108.65 144.89 108.74 143.17C108.89 138.27 108.69 132.99 107.97 127.56C106.44 116.86 103.46 106.05 97.22 97.03C97.6 96.74 97.41 96.88 97.84 96.55L98.04 96.79C104.13 106.29 107.06 116.33 108.69 127.42C109.41 132.89 109.65 138.17 109.46 143.12C109.41 144.85 109.32 146.38 109.17 147.78C109.13 148.26 109.08 148.69 109.03 149.02C108.98 149.27 108.98 149.41 108.98 149.46L108.93 149.99Z" fill="url(#paint_linear_23_2862_0)" fill-opacity="1.000000" fill-rule="nonzero"/>
	<g opacity="0.250000">
		<path id="Vector" d="M82.38 102.74C77.05 98.32 71.63 90.93 70.24 86.27C68.84 81.62 72.01 81.42 77.29 85.84C82.62 90.26 88.05 97.65 89.44 102.31C90.88 106.97 87.71 107.16 82.38 102.74Z" fill="#121214" fill-opacity="1.000000" fill-rule="nonzero"/>
	</g>
	<path id="Vector" d="M150.61 107.49C150.61 107.49 115.9 112.25 92.32 92.23C93.62 87.71 97.12 71.87 97.36 71.63C121.18 93.47 155.27 75.33 155.27 75.33L143.31 93.23L150.61 107.49Z" fill="url(#paint_linear_23_2864_0)" fill-opacity="1.000000" fill-rule="nonzero"/>
	<g opacity="0.400000">
		<path id="Vector" d="M130.01 51.61C130.54 53.1 129.77 55.98 127.13 57.75C124.73 59.34 118.25 61.21 111.19 65.2C102.74 69.95 91.12 90.07 91.12 90.07L102.02 99C102.02 99 105.91 96.21 108.36 91.79C113.98 92.18 120.65 92.42 125.98 92.08C137.55 91.31 140.96 86.66 141.39 83.15C141.58 81.57 138.75 75.85 135.97 68.17C134.33 63.61 131.36 53.19 130.01 51.61Z" fill="#121214" fill-opacity="1.000000" fill-rule="nonzero"/>
	</g>
	<path id="Vector" d="M151.14 107.78L143.74 93.23L155.79 75.81L155.31 75.33C149.89 83.01 153.92 76.77 142.93 93.19L150.08 107.21C149.36 107.3 149.74 107.25 148.93 107.3C147.58 107.4 146.05 107.49 144.32 107.59C139.42 107.73 134.14 107.54 128.72 106.82C118.01 105.29 107.21 102.31 98.18 96.07C97.89 96.45 98.04 96.26 97.7 96.69L97.94 96.88C107.45 102.98 117.48 105.91 128.57 107.54C134.05 108.26 139.33 108.5 144.27 108.31C146 108.26 147.54 108.17 148.93 108.02C149.41 107.97 149.84 107.93 150.18 107.88C150.42 107.83 150.56 107.83 150.61 107.83L151.14 107.78Z" fill="url(#paint_linear_23_2866_0)" fill-opacity="1.000000" fill-rule="nonzero"/>
	<path id="Vector" d="M116.38 22.46C115.18 21.79 111.96 20.98 107.54 25.39C104.61 28.32 100.1 34.42 95.59 42.82C88.43 56.22 84.02 72.4 84.02 72.4L95.78 78.25L132.51 41.53C132.51 41.53 117.82 23.91 116.38 22.46Z" fill="url(#paint_linear_23_2868_0)" fill-opacity="1.000000" fill-rule="nonzero"/>
	<path id="Vector" d="M132.84 41.57C131.16 39.56 131.98 40.56 130.4 38.64C128.67 36.53 126.89 34.42 125.16 32.4C123 29.81 120.79 27.22 118.59 24.67C118.15 24.14 117 22.7 116.42 22.27C114.17 21.02 110.95 21.6 107.35 25.25C103.99 28.61 99.43 35.09 95.35 42.73C93.23 46.66 91.27 51.08 89.39 55.79C87.81 59.72 86.46 63.71 85.26 67.45C84.83 68.75 84.5 69.95 84.16 71C84.06 71.39 83.97 71.73 83.87 71.96C83.78 72.3 83.82 72.11 83.73 72.49L95.83 78.54L132.84 41.57ZM132.22 41.53L95.78 77.97L84.35 72.25L84.4 72.11C84.5 71.82 84.59 71.48 84.69 71.15C84.98 70.09 85.36 68.89 85.79 67.6C86.99 63.85 88.39 59.91 89.92 55.98C91.79 51.27 93.76 46.9 95.87 42.97C99.96 35.38 104.42 28.95 107.78 25.59C109.65 23.76 112.25 21.7 115.08 22.22C115.37 22.27 115.99 22.46 116.28 22.66C116.57 22.85 117.29 23.81 117.48 24C118.06 24.67 118.78 25.49 119.35 26.21C121.03 28.18 122.67 30.1 124.3 32.07C124.49 32.31 124.68 32.5 124.83 32.74C126.51 34.76 128.28 36.87 130.01 38.98C130.64 39.7 131.21 40.37 131.69 41L132.22 41.53Z" fill="#FFA7A9" fill-opacity="1.000000" fill-rule="nonzero"/>
	<path id="Vector" d="M131.02 48.87C131.55 50.36 130.78 53.24 128.14 55.02C125.74 56.6 119.26 58.47 112.2 62.46C103.75 67.21 93.38 76.05 93.38 76.05L97.7 88.05C97.7 88.05 115.42 90.16 126.99 89.35C138.56 88.58 141.97 83.92 142.4 80.42C142.59 78.83 139.76 73.12 136.97 65.44C135.34 60.87 132.36 50.46 131.02 48.87Z" fill="url(#paint_linear_23_2870_0)" fill-opacity="1.000000" fill-rule="nonzero"/>
	<path id="Vector" d="M81.81 27.03C86.51 30 87.47 37.78 87.09 45.89C86.61 55.59 84.83 73.55 84.83 73.55L97.32 76.29C97.32 76.29 108.5 62.41 113.98 52.18C119.45 41.96 120.7 37.4 117.91 35.14C116.66 34.13 110.38 31.83 102.36 30.1C97.65 29.04 83.87 26.69 81.81 27.03Z" fill="url(#paint_linear_23_2871_0)" fill-opacity="1.000000" fill-rule="nonzero"/>
	<g opacity="0.308000">
		<path id="Vector" d="M96.36 76C103.61 66.78 110.66 57.32 115.7 46.71C116.47 45.08 117.29 43.16 117.86 41.43C118.35 39.85 118.78 37.97 118.15 36.39C117.53 34.76 116.18 34.23 114.7 33.6C114.12 33.36 113.54 33.12 112.97 32.93C111 32.21 108.74 31.64 106.73 31.06C108.89 33.56 107.73 36.15 106.58 37.92C105.19 39.99 102.69 42.77 100.2 45.99C97.75 49.16 95.68 53.14 94.58 55.88C92.99 59.72 89.83 66.59 86.42 73.98L96.36 76Z" fill="url(#paint_linear_23_2872_0)" fill-opacity="1.000000" fill-rule="nonzero"/>
	</g>
	<path id="Vector" d="M88.87 75.13L93.52 66.97L91.89 76.77L100.82 66.49L94.19 78.98L109.56 65.58L96.02 80.7L104.61 77.82L97.94 82.82L117.62 77.44L98.18 85.46C98.08 85.46 88.87 75.13 88.87 75.13Z" fill="#80000D" fill-opacity="1.000000" fill-rule="nonzero"/>
	<path id="Vector" d="M85.12 72.69L85.17 72.16C85.26 71.05 85.41 69.8 85.5 68.46C85.84 64.62 86.18 60.78 86.51 57.13C86.56 56.84 86.56 56.51 86.61 56.22C86.94 52.14 87.18 48.63 87.33 45.89C87.47 41.48 87.57 36.87 86.13 32.64C85.46 30.68 84.16 28.42 82.38 27.17C81.62 26.83 81.95 27.03 81.28 27.07L81.76 27.36C85.89 29.96 87.33 36.24 86.85 45.85C86.7 48.54 86.46 52.04 86.13 56.12C86.13 56.41 86.08 56.75 86.03 57.03C85.74 60.63 85.41 64.52 85.02 68.36C84.88 69.71 84.78 70.96 84.69 72.06L84.64 72.54L84.78 72.59L85.12 72.69Z" fill="#FFA7A9" fill-opacity="1.000000" fill-rule="nonzero"/>
	<g opacity="0.311000">
		<path id="Vector" d="M135.77 74.56C137.12 73.12 138.27 71.29 138.41 69.28C137.26 66.3 137.74 67.6 136.92 65.34C135.29 60.83 132.32 50.41 130.97 48.82C131.5 50.31 130.73 53.19 128.09 54.97C125.69 56.55 119.21 58.43 112.15 62.41C107.25 65.2 102.69 68.56 98.23 72.01C97.03 72.93 95.83 73.89 94.67 74.85C94.24 75.23 93.71 75.57 93.33 76L97.56 87.76L97.6 87.76C106.58 85.79 115.46 83.44 124.11 80.37C126.84 79.41 128.67 78.59 131.21 77.49C131.5 77.34 132.84 76.72 133.28 76.48C133.76 76.19 134.19 75.9 134.62 75.61L135.77 74.56Z" fill="url(#paint_linear_23_2875_0)" fill-opacity="1.000000" fill-rule="nonzero"/>
	</g>
	<path id="Vector" d="M116.38 22.46C117.87 23.95 118.54 27.7 116.38 31.3C114.46 34.52 107.83 40.28 101.68 48.92C94.34 59.19 86.99 75.37 86.99 75.37L98.76 87.14C98.76 87.14 120.79 79.79 134 72.45C147.2 65.1 148.69 57.75 147.2 53.34C146.53 51.37 141.58 44.69 133.9 37.2C127.23 30.58 118.83 23.57 116.38 22.46Z" fill="url(#paint_linear_23_2876_0)" fill-opacity="1.000000" fill-rule="nonzero"/>
	<path id="Vector" d="M87.86 74.08C88.53 72.64 88.15 73.45 89.01 71.68C90.4 68.8 91.94 65.77 93.57 62.75C94.91 60.25 96.26 57.9 97.56 55.69C99.04 53.19 100.48 50.94 101.88 49.02C105.05 44.5 108.74 40.42 112.44 36.39C114.84 33.75 115.9 32.5 116.57 31.39C117.82 29.19 118.68 25.68 117.29 23.33C116.95 22.66 116.52 22.27 116.47 22.22L116.18 22.61C117.82 24.24 118.01 28.03 116.14 31.15C115.51 32.21 114.46 33.46 112.06 36.1C109.56 38.88 106.97 41.62 104.66 44.55C103.03 46.57 102.74 47 101.44 48.78C100.05 50.74 98.56 53 97.08 55.5C95.73 57.71 94.43 60.06 93.09 62.55C91.46 65.58 89.92 68.6 88.53 71.48C87.66 73.21 88.05 72.45 87.42 73.84L87.86 74.08Z" fill="#FFA7A9" fill-opacity="1.000000" fill-rule="nonzero"/>
	<g opacity="0.250000">
		<path id="Vector" d="M103.89 81.38C99.48 76.05 92.08 70.62 87.42 69.23C82.77 67.84 82.58 71.01 86.99 76.29C91.41 81.62 98.8 87.04 103.46 88.43C108.12 89.83 108.31 86.66 103.89 81.38Z" fill="#121214" fill-opacity="1.000000" fill-rule="nonzero"/>
	</g>
	<path id="Vector" d="M69.85 82.34C70.09 79.5 81.52 68.89 84.06 68.41C86.61 67.98 107.16 86.37 106.39 89.73C105.77 92.61 93.95 104.09 90.64 105.48C87.42 106.82 69.61 85.17 69.85 82.34Z" fill="url(#paint_linear_23_2879_0)" fill-opacity="1.000000" fill-rule="nonzero"/>
</svg>
