<svg width="18.970428" height="19.961792" viewBox="0 0 18.9704 19.9618" fill="none" xmlns="http://www.w3.org/2000/svg" xmlns:xlink="http://www.w3.org/1999/xlink">
	<desc>
			Created with Pixso.
	</desc>
	<defs/>
	<path id="Vector" d="M2.97 2.45C2.58 2.45 2.19 2.53 1.83 2.68C1.47 2.83 1.14 3.05 0.87 3.32C0.59 3.6 0.37 3.93 0.22 4.29C0.07 4.65 -0.01 5.04 0 5.43C0 7.66 2.97 10.96 2.97 10.96C2.97 10.96 5.95 7.66 5.95 5.43C5.95 5.04 5.87 4.65 5.73 4.29C5.58 3.93 5.36 3.6 5.08 3.32C4.8 3.05 4.47 2.83 4.11 2.68C3.75 2.53 3.36 2.45 2.97 2.45ZM2.97 6.49C2.76 6.49 2.56 6.43 2.38 6.32C2.21 6.2 2.07 6.03 1.99 5.84C1.91 5.64 1.89 5.43 1.93 5.22C1.97 5.02 2.07 4.83 2.22 4.68C2.37 4.53 2.56 4.43 2.77 4.39C2.97 4.35 3.19 4.37 3.38 4.45C3.57 4.53 3.74 4.67 3.86 4.84C3.97 5.02 4.04 5.22 4.04 5.43C4.04 5.71 3.92 5.98 3.72 6.18C3.53 6.38 3.25 6.49 2.97 6.49Z" fill="#121214" fill-opacity="1.000000" fill-rule="nonzero"/>
	<path id="Vector" d="M17.98 9.25L17.98 4.95C17.97 4.5 17.91 4.05 17.78 3.61C17.45 2.47 16.72 1.48 15.73 0.82C14.74 0.17 13.54 -0.11 12.36 0.03C11.18 0.18 10.09 0.74 9.28 1.62C8.48 2.5 8.02 3.64 7.98 4.83L7.98 5.08L7.97 5.95L7.97 15.9L7.97 15.9L7.97 15.94C7.97 16.47 7.76 16.98 7.38 17.36C7.01 17.73 6.5 17.94 5.97 17.94C5.44 17.94 4.93 17.73 4.55 17.36C4.18 16.98 3.97 16.47 3.97 15.94C3.97 15.93 3.97 15.92 3.97 15.9L3.97 15.9L3.97 13.96L1.97 13.96L1.97 15.96L1.97 15.96C1.97 17.02 2.39 18.04 3.14 18.79C3.89 19.54 4.91 19.96 5.97 19.96C7.03 19.96 8.05 19.53 8.8 18.78C9.55 18.03 9.97 17.02 9.97 15.96L9.97 15.96L9.97 14.97L9.97 14.97L9.97 6.95L9.98 5.08L9.98 4.83C10.01 4.04 10.35 3.3 10.92 2.76C11.49 2.22 12.26 1.92 13.04 1.94C13.83 1.96 14.58 2.28 15.13 2.84C15.68 3.41 15.99 4.17 15.98 4.95L15.98 9.23C15.6 9.45 15.3 9.78 15.13 10.19C14.95 10.59 14.92 11.04 15.03 11.47C15.14 11.9 15.39 12.27 15.74 12.54C16.08 12.82 16.51 12.96 16.95 12.97C17.39 12.97 17.82 12.83 18.17 12.57C18.52 12.3 18.77 11.93 18.89 11.5C19.01 11.08 18.98 10.63 18.82 10.22C18.66 9.81 18.36 9.47 17.98 9.25L17.98 9.25Z" fill="#121214" fill-opacity="1.000000" fill-rule="nonzero"/>
</svg>
