<svg width="95.000000" height="95.000000" viewBox="0 0 95 95" fill="none" xmlns="http://www.w3.org/2000/svg" xmlns:xlink="http://www.w3.org/1999/xlink">
	<defs>
		<clipPath>
			<rect width="95.000000" height="95.000000" fill="white" fill-opacity="0"/>
		</clipPath>
	</defs>
	<rect id="carbon:play-filled" width="95.000000" height="95.000000" fill="#FFFFFF" fill-opacity="0"/>
	<g clip-path="url(#clip23_2700)">
		<path d="M47.5 5.93C39.27 5.93 31.24 8.37 24.4 12.94C17.57 17.5 12.24 24 9.1 31.59C5.95 39.18 5.13 47.54 6.73 55.6C8.33 63.67 12.29 71.07 18.11 76.88C23.92 82.7 31.32 86.66 39.39 88.26C47.45 89.86 55.81 89.04 63.4 85.89C70.99 82.75 77.49 77.42 82.05 70.59C86.62 63.75 89.06 55.72 89.06 47.5C89.06 36.47 84.68 25.9 76.88 18.11C69.09 10.31 58.52 5.93 47.5 5.93ZM69.6 50.15L33.98 67.96C33.53 68.19 33.02 68.3 32.52 68.27C32.01 68.25 31.52 68.1 31.09 67.83C30.66 67.57 30.3 67.2 30.06 66.75C29.81 66.31 29.68 65.81 29.68 65.31L29.68 29.68C29.68 29.18 29.81 28.68 30.06 28.24C30.31 27.8 30.66 27.42 31.09 27.16C31.52 26.89 32.01 26.74 32.52 26.72C33.02 26.7 33.53 26.8 33.98 27.03L69.6 44.84C70.1 45.09 70.51 45.47 70.8 45.94C71.09 46.4 71.24 46.94 71.24 47.5C71.24 48.05 71.09 48.59 70.8 49.05C70.51 49.52 70.1 49.9 69.6 50.15L69.6 50.15Z" fill="#FFFFFF" fill-opacity="1.000000" fill-rule="nonzero"/>
	</g>
</svg>
