<svg width="53.000000" height="53.000000" viewBox="0 0 53 53" fill="none" xmlns="http://www.w3.org/2000/svg" xmlns:xlink="http://www.w3.org/1999/xlink">
	<desc>
			Created with Pixso.
	</desc>
	<defs>
		<filter id="filter_3_10_dd" x="0.000000" y="0.000000" width="53.000000" height="53.000000" filterUnits="userSpaceOnUse" color-interpolation-filters="sRGB">
			<feFlood flood-opacity="0" result="BackgroundImageFix"/>
			<feColorMatrix in="SourceAlpha" type="matrix" values="0 0 0 0 0 0 0 0 0 0 0 0 0 0 0 0 0 0 127 0" result="hardAlpha"/>
			<feOffset dx="0" dy="4"/>
			<feGaussianBlur stdDeviation="1.33333"/>
			<feComposite in2="hardAlpha" operator="out" k2="-1" k3="1"/>
			<feColorMatrix type="matrix" values="0 0 0 0 0 0 0 0 0 0 0 0 0 0 0 0 0 0 0.25 0"/>
			<feBlend mode="normal" in2="BackgroundImageFix" result="effect_dropShadow_1"/>
			<feBlend mode="normal" in="SourceGraphic" in2="effect_dropShadow_1" result="shape"/>
		</filter>
	</defs>
	<g filter="url(#filter_3_10_dd)">
		<circle id="Ellipse 24" cx="26.500000" cy="22.500000" r="22.500000" fill="#037E8C" fill-opacity="1.000000"/>
		<path id="Vector" d="M31.53 34C30.78 34 30.05 33.86 29.33 33.6C26.16 32.45 23.21 30.57 20.81 28.18C18.42 25.78 16.54 22.83 15.39 19.66C15.02 18.64 14.91 17.59 15.06 16.54C15.21 15.55 15.59 14.59 16.17 13.76C16.75 12.93 17.53 12.24 18.42 11.76C19.36 11.25 20.39 11 21.48 11C21.82 11 22.11 11.23 22.19 11.56L23.31 16.83C23.36 17.07 23.29 17.31 23.12 17.49L21.19 19.41C23.01 23.03 25.96 25.98 29.58 27.8L31.5 25.87C31.68 25.7 31.92 25.63 32.16 25.68L37.43 26.8C37.76 26.88 38 27.17 38 27.51C38 28.6 37.74 29.63 37.23 30.57C36.75 31.46 36.06 32.24 35.23 32.82C34.4 33.4 33.44 33.78 32.45 33.93C32.14 33.97 31.83 34 31.53 34ZM20.91 12.46C19.47 12.62 18.2 13.38 17.35 14.58C16.4 15.94 16.17 17.62 16.74 19.17C18.95 25.27 23.72 30.04 29.82 32.25C31.37 32.82 33.05 32.59 34.41 31.64C35.61 30.79 36.37 29.52 36.53 28.08L32.24 27.16L30.23 29.18C30.02 29.39 29.69 29.45 29.42 29.32C25.14 27.31 21.68 23.85 19.67 19.57C19.54 19.3 19.6 18.97 19.81 18.76L21.83 16.75L20.91 12.46Z" fill="#FFFFFF" fill-opacity="1.000000" fill-rule="nonzero"/>
	</g>
</svg>
