<svg width="36.000000" height="36.000000" viewBox="0 0 36 36" fill="none" xmlns="http://www.w3.org/2000/svg" xmlns:xlink="http://www.w3.org/1999/xlink">
	<desc>
			Created with Pixso.
	</desc>
	<defs>
		<clipPath id="clip60_605">
			<rect id="basil:instagram-outline" width="36.000000" height="36.000000" fill="white" fill-opacity="0"/>
		</clipPath>
	</defs>
	<rect id="basil:instagram-outline" width="36.000000" height="36.000000" fill="#FFFFFF" fill-opacity="0"/>
	<g clip-path="url(#clip60_605)">
		<path id="Vector" d="M24 10.5C24 10.1 24.15 9.72 24.43 9.43C24.72 9.15 25.1 9 25.5 9C25.89 9 26.27 9.15 26.56 9.43C26.84 9.72 27 10.1 27 10.5C27 10.89 26.84 11.27 26.56 11.56C26.27 11.84 25.89 12 25.5 12C25.1 12 24.72 11.84 24.43 11.56C24.15 11.27 24 10.89 24 10.5Z" fill="#FFF9F4" fill-opacity="1.000000" fill-rule="nonzero"/>
		<path id="Vector" d="M18 10.87C16.11 10.87 14.29 11.62 12.96 12.96C11.62 14.29 10.87 16.11 10.87 18C10.87 19.88 11.62 21.7 12.96 23.03C14.29 24.37 16.11 25.12 18 25.12C19.88 25.12 21.7 24.37 23.03 23.03C24.37 21.7 25.12 19.88 25.12 18C25.12 16.11 24.37 14.29 23.03 12.96C21.7 11.62 19.88 10.87 18 10.87ZM13.12 18C13.12 16.7 13.63 15.46 14.55 14.55C15.46 13.63 16.7 13.12 18 13.12C19.29 13.12 20.53 13.63 21.44 14.55C22.36 15.46 22.87 16.7 22.87 18C22.87 19.29 22.36 20.53 21.44 21.44C20.53 22.36 19.29 22.87 18 22.87C16.7 22.87 15.46 22.36 14.55 21.44C13.63 20.53 13.12 19.29 13.12 18Z" fill="#FFF9F4" fill-opacity="1.000000" fill-rule="evenodd"/>
		<path id="Vector" d="M25.63 4.24C20.45 3.66 15.22 3.66 10.04 4.24C7.05 4.57 4.64 6.92 4.29 9.91C3.68 15.16 3.68 20.46 4.29 25.71C4.64 28.7 7.05 31.04 10.04 31.38C15.22 31.95 20.45 31.95 25.63 31.38C28.61 31.04 31.02 28.7 31.37 25.71C31.99 20.46 31.99 15.16 31.37 9.91C31.02 6.92 28.61 4.57 25.63 4.24ZM10.28 6.44C15.3 5.89 20.36 5.89 25.38 6.44C27.35 6.66 28.93 8.22 29.16 10.17C29.76 15.24 29.76 20.37 29.16 25.45C29.04 26.4 28.61 27.29 27.92 27.96C27.23 28.64 26.34 29.07 25.38 29.17C20.36 29.73 15.3 29.73 10.28 29.17C9.32 29.07 8.43 28.64 7.74 27.96C7.06 27.29 6.62 26.4 6.5 25.45C5.91 20.37 5.91 15.24 6.5 10.17C6.62 9.21 7.06 8.33 7.74 7.65C8.43 6.98 9.32 6.55 10.28 6.44Z" fill="#FFF9F4" fill-opacity="1.000000" fill-rule="evenodd"/>
	</g>
</svg>
