<svg width="17.027588" height="16.674927" viewBox="0 0 17.0276 16.6749" fill="none" xmlns="http://www.w3.org/2000/svg" xmlns:xlink="http://www.w3.org/1999/xlink">
	<desc>
			Created with Pixso.
	</desc>
	<defs/>
	<path id="Vector" d="M7.07 9.73C8.12 10.79 9.38 11.61 10.77 12.13L12.66 10.63C12.71 10.59 12.78 10.57 12.85 10.57C12.92 10.57 12.98 10.59 13.04 10.63L16.54 12.88C16.67 12.96 16.78 13.07 16.87 13.2C16.95 13.33 17 13.48 17.02 13.64C17.03 13.79 17.01 13.95 16.96 14.09C16.9 14.24 16.82 14.37 16.7 14.47L15.06 16.09C14.83 16.32 14.54 16.5 14.22 16.59C13.91 16.68 13.57 16.7 13.25 16.63C10.02 15.96 7.05 14.4 4.67 12.13C2.35 9.83 0.74 6.91 0.04 3.71C-0.03 3.39 -0.02 3.06 0.08 2.75C0.18 2.44 0.35 2.16 0.59 1.94L2.29 0.3C2.39 0.19 2.52 0.11 2.66 0.06C2.81 0 2.96 -0.02 3.11 0C3.26 0.02 3.4 0.06 3.53 0.14C3.66 0.22 3.77 0.33 3.85 0.46L6.18 3.91C6.22 3.97 6.24 4.03 6.24 4.1C6.24 4.17 6.22 4.23 6.18 4.29L4.64 6.13C5.18 7.5 6.01 8.73 7.07 9.73Z" fill="#037E8C" fill-opacity="1.000000" fill-rule="nonzero"/>
</svg>
