<svg width="10.000000" height="12.250000" viewBox="0 0 10 12.25" fill="none" xmlns="http://www.w3.org/2000/svg" xmlns:xlink="http://www.w3.org/1999/xlink">
	<desc>
			Created with Pixso.
	</desc>
	<defs/>
	<path id="Vector" d="M6.23 7.87C8.44 7.87 10 6.24 10 3.91C10 1.57 8.44 0 6.23 0L1.97 0C1.8 0 1.66 0.14 1.66 0.32L1.66 5.97L0.31 5.97C0.13 5.97 0 6.12 0 6.3L0 7.54C0 7.72 0.13 7.87 0.31 7.87L1.66 7.87L1.66 8.75L0.31 8.75C0.13 8.75 0 8.89 0 9.07L0 10.17C0 10.35 0.13 10.5 0.31 10.5L1.66 10.5L1.66 11.92C1.66 12.1 1.8 12.25 1.97 12.25L3.5 12.25C3.67 12.25 3.81 12.1 3.81 11.92L3.81 10.5L8.02 10.5C8.19 10.5 8.33 10.35 8.33 10.17L8.33 9.07C8.33 8.89 8.19 8.75 8.02 8.75L3.81 8.75L3.81 7.87L6.23 7.87ZM3.81 1.87L5.86 1.87C7.08 1.87 7.81 2.67 7.81 3.91C7.81 5.16 7.08 5.97 5.83 5.97L3.81 5.97L3.81 1.87Z" fill="#037E8C" fill-opacity="1.000000" fill-rule="nonzero"/>
</svg>
